<?xml version="1.0" encoding="UTF-8"?>
<!-- HanaNote · Horizontal wordmark lockup (花笺 HanaNote) -->
<svg xmlns="http://www.w3.org/2000/svg" viewBox="0 0 360 88" width="360" height="88">
  <defs>
    <linearGradient id="petalH" x1="0%" y1="0%" x2="100%" y2="100%">
      <stop offset="0%" stop-color="#FFE8EE"/>
      <stop offset="100%" stop-color="#FFB7C5"/>
    </linearGradient>
    <radialGradient id="sealH" cx="50%" cy="40%" r="60%">
      <stop offset="0%" stop-color="#FBF1DC"/>
      <stop offset="50%" stop-color="#E8C887"/>
      <stop offset="100%" stop-color="#C99A4D"/>
    </radialGradient>
  </defs>
  <!-- Petal Stamp glyph (left) -->
  <g transform="translate(44,44) scale(0.55)">
    <path d="M0,-44 C12,-40 16,-22 0,-12 C-16,-22 -12,-40 0,-44 Z" fill="url(#petalH)" stroke="#C99A4D" stroke-width="0.8" stroke-opacity="0.55"/>
    <g transform="rotate(72)"><path d="M0,-44 C12,-40 16,-22 0,-12 C-16,-22 -12,-40 0,-44 Z" fill="url(#petalH)" stroke="#C99A4D" stroke-width="0.8" stroke-opacity="0.55"/></g>
    <g transform="rotate(144)"><path d="M0,-44 C12,-40 16,-22 0,-12 C-16,-22 -12,-40 0,-44 Z" fill="url(#petalH)" stroke="#C99A4D" stroke-width="0.8" stroke-opacity="0.55"/></g>
    <g transform="rotate(216)"><path d="M0,-44 C12,-40 16,-22 0,-12 C-16,-22 -12,-40 0,-44 Z" fill="url(#petalH)" stroke="#C99A4D" stroke-width="0.8" stroke-opacity="0.55"/></g>
    <g transform="rotate(288)"><path d="M0,-44 C12,-40 16,-22 0,-12 C-16,-22 -12,-40 0,-44 Z" fill="url(#petalH)" stroke="#C99A4D" stroke-width="0.8" stroke-opacity="0.55"/></g>
    <circle cx="0" cy="0" r="12" fill="url(#sealH)" stroke="#8E6A2B" stroke-width="0.6"/>
  </g>
  <!-- 花笺 — primary mark, larger -->
  <text x="92" y="50" font-family="'Plus Jakarta Sans', 'PingFang SC', 'Hiragino Sans GB', 'Noto Sans SC', sans-serif" font-weight="800" font-size="34" fill="#864E5A" letter-spacing="-0.01em">花笺</text>
  <!-- HanaNote — secondary -->
  <text x="178" y="40" font-family="'Plus Jakarta Sans', sans-serif" font-weight="800" font-size="28" fill="#864E5A" letter-spacing="-0.02em">HanaNote</text>
  <!-- tagline -->
  <text x="178" y="62" font-family="'Be Vietnam Pro', 'PingFang SC', sans-serif" font-weight="600" font-size="11" fill="#8E6A2B" letter-spacing="0.18em">DIGITAL · STATIONERY</text>
</svg>
